<?xml version="1.0" encoding="UTF-8" standalone="no"?>
<svg
   xmlns:dc="http://purl.org/dc/elements/1.1/"
   xmlns:cc="http://creativecommons.org/ns#"
   xmlns:rdf="http://www.w3.org/1999/02/22-rdf-syntax-ns#"
   xmlns:svg="http://www.w3.org/2000/svg"
   xmlns="http://www.w3.org/2000/svg"
   xmlns:sodipodi="http://sodipodi.sourceforge.net/DTD/sodipodi-0.dtd"
   xmlns:inkscape="http://www.inkscape.org/namespaces/inkscape"
   version="1.1"
   viewBox="0 0 512 512"
   id="svg15"
   sodipodi:docname="uniprep_logo_2015_rgb.svg"
   inkscape:version="0.92.3 (2405546, 2018-03-11)">
  <metadata
     id="metadata19">
    <rdf:RDF>
      <cc:Work
         rdf:about="">
        <dc:format>image/svg+xml</dc:format>
        <dc:type
           rdf:resource="http://purl.org/dc/dcmitype/StillImage" />
      </cc:Work>
    </rdf:RDF>
  </metadata>
  <sodipodi:namedview
     pagecolor="#ffffff"
     bordercolor="#666666"
     borderopacity="1"
     objecttolerance="10"
     gridtolerance="10"
     guidetolerance="10"
     inkscape:pageopacity="0"
     inkscape:pageshadow="2"
     inkscape:window-width="1873"
     inkscape:window-height="1145"
     id="namedview17"
     showgrid="false"
     inkscape:zoom="0.65186406"
     inkscape:cx="-243.16005"
     inkscape:cy="414.7635"
     inkscape:window-x="47"
     inkscape:window-y="27"
     inkscape:window-maximized="1"
     inkscape:current-layer="svg15" />
  <defs
     id="defs5">
    <clipPath
       id="a">
      <path
         d="m0 842h595v-842h-595z"
         id="path2" />
    </clipPath>
  </defs>
  <path
     style="fill:#ffffff;fill-opacity:1;stroke:none;stroke-width:1.50199997;stroke-miterlimit:10;stroke-dasharray:none;stroke-opacity:1"
     d="M 26.079058,10.36167 H 490.89989 V 495.12531 H 26.079058 Z"
     id="rect826" />
  <g
     transform="matrix(1.33 0 0 -1.33 0 512)"
     id="g13">
    <g
       transform="matrix(2.71 0 0 2.71 -606 -949)"
       id="g11">
      <g
         clip-path="url(#a)"
         id="g9">
        <path
           transform="matrix(.277 0 0 -.277 224 492)"
           d="m38.4 0c-21.1 0-38.4 17.3-38.4 38.4v435c0 21.1 17.3 38.4 38.4 38.4h435c21.1 0 38.4-17.3 38.4-38.4v-435c0-21.1-17.3-38.4-38.4-38.4h-435zm413 126c10.6 0 18.9 8.57 18.9 18.9v0.107c0 10.3-8.35 19-18.9 19-10.6 0-18.9-8.56-18.9-18.9v-0.105c0-10.3 8.35-19 18.9-19zm0 2.07c-9.43 0-16.7 7.69-16.7 16.9v0.105c0 9.22 7.16 16.8 16.7 16.8 9.43 0 16.7-7.7 16.7-16.9v-0.107c0-9.22-7.16-16.8-16.7-16.8zm-120 0.0664c6.14 0 11 4.88 11 10.8v106c0 6.14-4.7 11-10.8 11h-0.904c-5.24 0-8.49-2.71-11.6-6.68l-65-84.2v80.2c0 5.96-4.87 10.8-10.8 10.8-6.14 0-11-4.88-11-10.8v-106c0-6.14 4.88-11.2 11.2-11.2h2.34c5.42 0 8.49 2.71 11.6 6.5l63.2 81.8v-77.7c0-5.96 4.87-10.8 10.8-10.8zm71.7 0c6.14 0 11 4.88 11 11v106c0 6.14-4.88 11-11 11-6.32 0-11.2-4.88-11.2-11v-106c0-6.14 4.88-11 11.2-11zm-314 0.00195c6.14 0 11 4.88 11 11v61.8c0 23.5 12.1 35.9 32 35.9 19.7 0 31.8-11.7 31.8-35v-62.7c0-6.14 4.88-11 11.2-11 6.14 0 11 4.88 11 11v61.6c0 37.7-21.3 56.7-54.4 56.7-32.9 0-53.8-19-53.8-55.6v-62.7c0-6.14 4.87-11 11.2-11zm357 6.97h6.94c3.9 0 7.05 2.06 7.05 5.86 0 2.93-1.85 4.99-4.55 5.85l4.12 4.88c0.433 0.542 0.537 0.871 0.537 1.3 0 0.759-0.537 1.41-1.4 1.41-0.65 0-1.09-0.32-1.52-0.869l-5.31-6.39h-4.33v5.74c0 0.867-0.651 1.52-1.52 1.52-0.863 0-1.52-0.649-1.52-1.52v-16.3c0-0.863 0.654-1.52 1.52-1.52zm1.52 2.71v6.83h5.09c2.71 0 4.23-1.41 4.23-3.47 0-2.28-1.62-3.36-4.23-3.36h-5.09zm-168 172h44.1c3.25 0 5.96 2.71 5.96 5.96 0 3.36-2.71 5.96-5.96 5.96h-37.5v19.7h32.6c3.25 0 5.96 2.71 5.96 6.07 0 3.25-2.71 5.86-5.96 5.86h-32.6v20.4h38c3.26 0 5.97 2.71 5.97 5.96 0 3.36-2.71 5.96-5.97 5.96h-44.7c-3.79 0-6.72-2.93-6.72-6.72v-62.4c0-3.79 2.93-6.72 6.72-6.72zm-199 0.00195h23.2c17.8 0 28.8 10.1 28.8 25.4v0.217c0 17-13.7 25.9-30.4 25.9h-15.1v18.3c0 3.68-2.92 6.62-6.61 6.62-3.8 0-6.72-2.93-6.72-6.62v-63.1c0-3.79 2.93-6.72 6.72-6.72zm296 0h23.2c17.8 0 28.8 10.1 28.8 25.4v0.217c0 17-13.7 25.9-30.4 25.9h-15.1v18.3c0 3.68-2.92 6.62-6.61 6.62-3.8 0-6.72-2.93-6.72-6.62v-63.1c0-3.79 2.92-6.72 6.72-6.72zm-199 0.00195h27.1c9.54 0 17 2.81 21.9 7.58 4.01 4.12 6.29 9.76 6.29 16.4v0.221c0 12.1-7.05 19.5-17.2 22.7l14.5 18.3c1.3 1.62 2.17 3.03 2.17 5.09 0 3.68-3.14 6.18-6.4 6.18-3.03 0-4.98-1.41-6.5-3.47l-18.4-23.5h-16.8v20.4c0 3.69-2.93 6.62-6.61 6.62-3.8 0-6.72-2.93-6.72-6.62v-63.1c0-3.79 2.93-6.72 6.72-6.72zm-89.9 12.1v27.3h15.5c10.1 0 16.4-5.64 16.4-13.6v-0.217c0-8.88-6.4-13.5-16.4-13.5h-15.5zm296 0v27.3h15.5c10.1 0 16.4-5.64 16.4-13.6v-0.217c0-8.88-6.4-13.5-16.4-13.5h-15.5zm-199 0.00196v25.5h19.5c9.54 0 15.6-4.99 15.6-12.7v-0.221c0-8.12-5.85-12.6-15.7-12.6h-19.4z"
           style="fill:#0069b8"
           id="path7" />
      </g>
    </g>
  </g>
</svg>
